General
Complete name                    : Marco.Polo.1982.avi
Format                           : AVI
File size                        : 1.37 GiB
Duration                         : 2h 15mn
Overall bit rate                 : 1 446 Kbps

Video

Format                           : MPEG-4 Visual
Codec ID/Hint                    : XviD
Duration                         : 2h 15mn
Bit rate                         : 1 321 Kbps
Width                            : 714 pixels
Height                           : 576 pixels
Display aspect ratio             : 4:3
Frame rate                       : 25.000 fps
Stream size                      : 1.25 GiB (91%)
Writing library                  : XviD 1.1.2 (UTC 2006-11-01)

Audio

Format                           : MPEG Audio
Codec ID/Hint                    : MP3
Duration                         : 2h 15mn
Bit rate                         : 112 Kbps
Channel(s)                       : 2 channels
Sampling rate                    : 48.0 KHz
Stream size                      : 109 MiB (8%)


 
http://en.wikipedia.org/wiki/Marco_Polo_%28TV_miniseries%29